<svg width="33" height="27" viewBox="0 0 33 27" fill="none" xmlns="http://www.w3.org/2000/svg">
<path d="M15.981 16.7805C16.1595 16.9295 16.3766 17.01 16.5997 17.01C16.8229 17.01 17.04 16.9295 17.2185 16.7805L29.3975 6.61364C29.5875 6.45422 29.7221 6.22659 29.7785 5.96934C29.8349 5.7121 29.8096 5.44107 29.7069 5.20222C29.5533 4.84915 29.3477 4.52722 29.0985 4.24979C28.5189 3.60401 27.7325 3.24079 26.9122 3.23999H6.28724C5.467 3.24079 4.68062 3.60401 4.10099 4.24979C3.85179 4.52722 3.64613 4.84915 3.49255 5.20222C3.38985 5.44107 3.36456 5.7121 3.42094 5.96934C3.47733 6.22659 3.61193 6.45422 3.80193 6.61364L15.981 16.7805ZM6.28724 5.53499H26.9122C27.0079 5.51823 27.1053 5.51823 27.201 5.53499L16.5997 14.4281L5.99849 5.53499C6.09415 5.51823 6.19158 5.51823 6.28724 5.53499Z" fill="white"/>
<path d="M28.9748 10.125C28.7013 10.125 28.439 10.2459 28.2456 10.4611C28.0522 10.6763 27.9435 10.9682 27.9435 11.2725V20.4525C27.9435 20.7568 27.8349 21.0487 27.6415 21.2639C27.4481 21.4791 27.1858 21.6 26.9123 21.6H6.28729C6.01379 21.6 5.75149 21.4791 5.55809 21.2639C5.36469 21.0487 5.25604 20.7568 5.25604 20.4525V11.2725C5.25604 10.9682 5.14739 10.6763 4.954 10.4611C4.7606 10.2459 4.4983 10.125 4.22479 10.125C3.95129 10.125 3.68899 10.2459 3.49559 10.4611C3.30219 10.6763 3.19354 10.9682 3.19354 11.2725V20.4525C3.19426 21.3652 3.52069 22.2402 4.10104 22.8852C4.68068 23.531 5.46706 23.8942 6.28729 23.895H26.9123C27.7325 23.8942 28.5189 23.531 29.0985 22.8852C29.6789 22.2402 30.0053 21.3652 30.006 20.4525V11.2725C30.006 10.9682 29.8974 10.6763 29.704 10.4611C29.5106 10.2459 29.2483 10.125 28.9748 10.125Z" fill="white"/>
</svg>
